<svg width="23.000000" height="19.000000" viewBox="0 0 23 19" fill="none" xmlns="http://www.w3.org/2000/svg" xmlns:xlink="http://www.w3.org/1999/xlink">
	<desc>
			Created with Pixso.
	</desc>
	<defs/>
	<path id="Vector" d="M19.25 2.12L17.34 2.12L15.97 -0.63L6.02 -0.63L4.65 2.12L2.75 2.12C1.24 2.13 0 3.36 0 4.87L0 15.87C0 17.39 1.23 18.62 2.75 18.62L19.25 18.62C20.76 18.62 22 17.39 22 15.87L22 4.87C22 3.35 20.76 2.12 19.25 2.12ZM10.99 15.18C7.96 15.18 5.49 12.72 5.49 9.68C5.49 6.65 7.96 4.18 10.99 4.18C14.03 4.18 16.49 6.65 16.49 9.68C16.49 12.72 14.03 15.18 10.99 15.18Z" fill="#989898" fill-opacity="1.000000" fill-rule="nonzero"/>
</svg>
