<svg width="45.000000" height="45.000000" viewBox="0 0 45 45" fill="none" xmlns="http://www.w3.org/2000/svg" xmlns:xlink="http://www.w3.org/1999/xlink">
	<desc>
			Created with Pixso.
	</desc>
	<defs/>
	<path id="XMLID 11" d="M45 22.5C45 34.92 34.92 45 22.5 45C10.07 45 0 34.92 0 22.5C0 10.07 10.07 0 22.5 0C34.92 0 45 10.07 45 22.5Z" fill="#4D76A1" fill-opacity="1.000000" fill-rule="evenodd"/>
	<path id="Vector" d="M21.65 32.36L23.41 32.36C23.41 32.36 23.94 32.3 24.22 32.01C24.47 31.74 24.46 31.24 24.46 31.24C24.46 31.24 24.43 28.87 25.52 28.52C26.61 28.17 28 30.81 29.48 31.82C30.59 32.59 31.44 32.42 31.44 32.42L35.39 32.36C35.39 32.36 37.45 32.24 36.47 30.61C36.39 30.48 35.9 29.41 33.54 27.22C31.06 24.92 31.4 25.29 34.38 21.32C36.19 18.9 36.92 17.43 36.69 16.79C36.47 16.19 35.14 16.35 35.14 16.35L30.7 16.38C30.7 16.38 30.37 16.33 30.12 16.48C29.88 16.62 29.73 16.96 29.73 16.96C29.73 16.96 29.03 18.83 28.09 20.42C26.11 23.78 25.32 23.96 25 23.75C24.24 23.26 24.43 21.8 24.43 20.75C24.43 17.5 24.93 16.14 23.47 15.79C22.99 15.67 22.63 15.6 21.4 15.58C19.81 15.57 18.47 15.59 17.71 15.96C17.21 16.21 16.82 16.76 17.05 16.79C17.35 16.83 18.01 16.97 18.36 17.45C18.82 18.07 18.8 19.46 18.8 19.46C18.8 19.46 19.07 23.29 18.19 23.77C17.59 24.09 16.77 23.43 15.01 20.38C14.11 18.82 13.42 17.09 13.42 17.09C13.42 17.09 13.29 16.77 13.06 16.6C12.77 16.39 12.37 16.32 12.37 16.32L8.15 16.35C8.15 16.35 7.52 16.37 7.29 16.64C7.08 16.89 7.27 17.4 7.27 17.4C7.27 17.4 10.58 25.13 14.32 29.03C17.75 32.6 21.65 32.36 21.65 32.36Z" fill="#FFFFFF" fill-opacity="1.000000" fill-rule="evenodd"/>
</svg>
