<svg width="45.000000" height="45.000000" viewBox="0 0 45 45" fill="none" xmlns="http://www.w3.org/2000/svg" xmlns:xlink="http://www.w3.org/1999/xlink">
	<desc>
			Created with Pixso.
	</desc>
	<defs>
		<clipPath id="clip12_290">
			<rect width="45.000000" height="45.000000" fill="white" fill-opacity="0"/>
		</clipPath>
	</defs>
	<rect width="45.000000" height="45.000000" fill="#FFFFFF" fill-opacity="0"/>
	<g clip-path="url(#clip12_290)">
		<path d="M0 22.5C0 34.92 10.07 45 22.49 45C34.92 45 45 34.92 45 22.5C45 10.07 34.92 0 22.49 0C10.07 0 0 10.07 0 22.5Z" fill="#FA6E51" fill-opacity="1.000000" fill-rule="nonzero"/>
		<path d="M44.94 23.97L34.45 13.47L34.44 13.47L29.02 8.05C28.96 7.99 28.9 7.95 28.82 7.92C28.75 7.89 28.67 7.87 28.59 7.87L17.62 7.87C17.28 7.87 17.01 8.14 17.01 8.48L17.01 11.53L10.31 11.53C9.97 11.53 9.7 11.8 9.7 12.14L9.7 36.51C9.7 36.72 9.81 36.89 9.96 37C10 37.06 17.24 44.29 17.3 44.33C17.31 44.36 17.34 44.38 17.36 44.4C19.01 44.79 20.73 45 22.49 44.99C34.43 45 44.18 35.71 44.94 23.97Z" fill="#E8573F" fill-opacity="1.000000" fill-rule="nonzero"/>
		<path d="M35.24 14.34C35.21 14.26 35.17 14.2 35.11 14.14L29.02 8.05C28.96 7.99 28.9 7.95 28.82 7.92C28.75 7.89 28.67 7.87 28.59 7.87L17.62 7.87C17.28 7.87 17.01 8.14 17.01 8.48L17.01 11.53L10.31 11.53C9.97 11.53 9.7 11.8 9.7 12.14L9.7 36.51C9.7 36.85 9.97 37.12 10.31 37.12L27.37 37.12C27.71 37.12 27.98 36.85 27.98 36.51L27.98 33.46L34.68 33.46C35.02 33.46 35.29 33.19 35.29 32.85L35.29 14.57C35.29 14.49 35.28 14.41 35.24 14.34ZM29.2 9.95L33.21 13.96L29.2 13.96L29.2 9.95ZM26.76 35.9L10.92 35.9L10.92 12.75L20.67 12.75L20.67 18.23C20.67 18.57 20.94 18.84 21.28 18.84L26.76 18.84L26.76 35.9ZM25.9 17.62L21.89 17.62L21.89 13.61L25.9 17.62ZM27.98 32.25L27.98 18.23C27.98 18.15 27.96 18.07 27.93 17.99C27.9 17.92 27.86 17.85 27.8 17.8L21.71 11.7C21.65 11.65 21.58 11.6 21.51 11.57C21.44 11.54 21.36 11.53 21.28 11.53L18.23 11.53L18.23 9.09L27.98 9.09L27.98 14.57C27.98 14.91 28.25 15.18 28.59 15.18L34.07 15.18L34.07 32.25L27.98 32.25Z" fill="#F4F6F9" fill-opacity="1.000000" fill-rule="nonzero"/>
	</g>
</svg>
