<svg width="45.000000" height="45.000000" viewBox="0 0 45 45" fill="none" xmlns="http://www.w3.org/2000/svg" xmlns:xlink="http://www.w3.org/1999/xlink">
	<desc>
			Created with Pixso.
	</desc>
	<defs>
		<clipPath id="clip12_231">
			<rect width="45.000000" height="45.000000" fill="white" fill-opacity="0"/>
		</clipPath>
	</defs>
	<rect width="45.000000" height="45.000000" fill="#FFFFFF" fill-opacity="0"/>
	<g clip-path="url(#clip12_231)">
		<path d="M45 22.5C45 34.92 34.92 45 22.5 45C10.07 45 0 34.92 0 22.5C0 10.07 10.07 0 22.5 0C34.92 0 45 10.07 45 22.5Z" fill="#3B5998" fill-opacity="1.000000" fill-rule="evenodd"/>
		<path d="M28.15 23.38L24.14 23.38L24.14 38.08L18.05 38.08L18.05 23.38L15.16 23.38L15.16 18.21L18.05 18.21L18.05 14.86C18.05 12.47 19.19 8.72 24.19 8.72L28.7 8.74L28.7 13.76L25.43 13.76C24.89 13.76 24.14 14.03 24.14 15.17L24.14 18.21L28.68 18.21L28.15 23.38Z" fill="#FFFFFF" fill-opacity="1.000000" fill-rule="nonzero"/>
	</g>
</svg>
