<svg width="45.000000" height="45.000000" viewBox="0 0 45 45" fill="none" xmlns="http://www.w3.org/2000/svg" xmlns:xlink="http://www.w3.org/1999/xlink">
	<desc>
			Created with Pixso.
	</desc>
	<defs/>
	<path id="Vector" d="M44 22.49C44 34.92 33.92 44.99 21.5 44.99C9.07 44.99 -1 34.92 -1 22.49C-1 10.07 9.07 0 21.5 0C33.92 0 44 10.07 44 22.49Z" fill="#55ACEE" fill-opacity="1.000000" fill-rule="evenodd"/>
	<path id="Vector" d="M35.28 16.17C34.31 16.59 33.28 16.88 32.19 17.01C33.3 16.35 34.15 15.29 34.55 14.04C33.51 14.65 32.36 15.1 31.14 15.34C30.16 14.3 28.76 13.64 27.21 13.64C24.24 13.64 21.83 16.05 21.83 19.02C21.83 19.44 21.88 19.85 21.97 20.25C17.5 20.02 13.54 17.88 10.89 14.63C10.42 15.42 10.16 16.35 10.16 17.33C10.16 19.2 11.11 20.84 12.55 21.81C11.67 21.78 10.84 21.54 10.12 21.13C10.12 21.16 10.12 21.18 10.12 21.2C10.12 23.81 11.97 25.98 14.43 26.48C13.98 26.6 13.5 26.66 13.01 26.66C12.67 26.66 12.33 26.63 12 26.57C12.69 28.7 14.67 30.26 17.03 30.3C15.18 31.75 12.87 32.61 10.35 32.61C9.91 32.61 9.48 32.58 9.06 32.53C11.44 34.06 14.27 34.95 17.31 34.95C27.2 34.95 32.61 26.75 32.61 19.64C32.61 19.41 32.6 19.18 32.59 18.95C33.64 18.19 34.56 17.24 35.28 16.17Z" fill="#F1F2F2" fill-opacity="1.000000" fill-rule="nonzero"/>
</svg>
