<svg width="20.000000" height="20.000000" viewBox="0 0 20 20" fill="none" xmlns="http://www.w3.org/2000/svg" xmlns:xlink="http://www.w3.org/1999/xlink">
	<desc>
			Created with Pixso.
	</desc>
	<defs/>
	<path id="Vector" d="M11.1 9L19.77 0.33C20.07 0.02 20.07 -0.47 19.77 -0.78C19.46 -1.08 18.97 -1.08 18.66 -0.78L9.99 7.89L1.33 -0.78C1.02 -1.08 0.53 -1.08 0.22 -0.78C-0.08 -0.47 -0.08 0.02 0.22 0.33L8.89 9L0.22 17.66C-0.08 17.97 -0.08 18.46 0.22 18.77C0.38 18.92 0.58 19 0.78 19C0.98 19 1.18 18.92 1.33 18.77L9.99 10.1L18.66 18.77C18.81 18.92 19.01 19 19.21 19C19.41 19 19.61 18.92 19.77 18.77C20.07 18.46 20.07 17.97 19.77 17.66L11.1 9Z" fill="#FFFFFF" fill-opacity="1.000000" fill-rule="nonzero"/>
</svg>
